<svg width="207" height="964" viewBox="0 0 207 964" fill="none" xmlns="http://www.w3.org/2000/svg">
<path opacity="0.2" d="M1.50004 1008.89L1.50004 980.642L91.5001 980.642L91.5001 970.142L1.50004 933.892L1.50004 905.642L97.7501 945.642L204 900.642L204 928.892L105.25 969.892L105.25 980.642L204 980.642L204 1008.89L1.50004 1008.89ZM206.25 830.188C206.25 850.022 200.667 864.272 189.5 872.938C178.167 881.438 161.833 885.688 140.5 885.688L63.75 885.688C42.75 885.688 26.8334 881.355 16 872.688C5.16671 864.022 -0.249954 849.855 -0.249955 830.188C-0.249956 810.522 5.25004 796.438 16.25 787.938C27.0834 779.272 42.9167 774.938 63.75 774.938L140.75 774.938C161.75 774.938 177.917 779.272 189.25 787.938C200.583 796.605 206.25 810.688 206.25 830.188ZM184 830.188C184 819.688 180.917 812.605 174.75 808.938C168.583 805.272 159.25 803.438 146.75 803.438L58 803.438C45.6667 803.438 36.5834 805.272 30.75 808.938C24.75 812.605 21.75 819.688 21.75 830.188C21.75 840.855 24.75 848.022 30.75 851.688C36.5834 855.355 45.6667 857.188 58 857.188L146.75 857.188C159.25 857.188 168.583 855.355 174.75 851.688C180.917 848.022 184 840.855 184 830.188ZM1.50003 747.173L1.50003 718.923L89 718.923L89 666.923L1.50003 666.923L1.50003 638.673L204 638.673L204 666.923L109.25 666.923L109.25 718.923L204 718.923L204 747.173L1.50003 747.173ZM22.5 584.786L22.5 619.036L1.50003 619.036L1.50002 523.286L22.5 523.286L22.5 556.536L204 556.536L204 584.786L22.5 584.786ZM1.50002 471.765L1.50002 444.515L204 401.265L204 428.015L153 437.265L153 478.515L204 488.265L204 514.765L1.50002 471.765ZM132.75 441.015L41.5 458.015L132.75 474.765L132.75 441.015ZM1.50002 380.718L1.50002 352.468L91.5 352.468L91.5 341.968L1.50001 305.718L1.50001 277.468L97.75 317.468L204 272.468L204 300.718L105.25 341.718L105.25 352.468L204 352.468L204 380.718L1.50002 380.718ZM22.5 231.515L22.5 265.765L1.50001 265.765L1.50001 170.015L22.5 170.015L22.5 203.265L204 203.265L204 231.515L22.5 231.515ZM1.50001 150.493L1.50001 122.243L85.75 122.243L85.75 114.243C85.75 98.9098 87.5 86.6598 91 77.4932C94.5 68.1598 100.5 61.1598 109 56.4932C117.5 51.8265 129.417 49.4932 144.75 49.4932C165.583 49.4932 180.667 54.5765 190 64.7431C199.333 74.9098 204 90.9931 204 112.993L204 150.493L1.50001 150.493ZM1.5 28.4932L1.5 0.243151L204 0.243142L204 28.4932L1.5 28.4932ZM183.75 112.993C183.75 103.993 182.75 96.9098 180.75 91.7432C178.75 86.4098 174.917 82.4931 169.25 79.9931C163.583 77.3265 155.333 75.9931 144.5 75.9931C135.167 75.9931 127.75 77.1598 122.25 79.4932C116.75 81.8265 112.75 85.7432 110.25 91.2432C107.583 96.5765 106.25 103.993 106.25 113.493L106.25 122.243L183.75 122.243L183.75 112.993Z" fill="black"/>
</svg>
