<svg width="481" height="66" viewBox="0 0 481 66" fill="none" xmlns="http://www.w3.org/2000/svg">
<path d="M75.2061 1.85742C73.9528 2.79167 72.6312 3.55501 71.2412 4.14746C69.8512 4.73991 68.3132 5.19564 66.627 5.51465C65.7383 5.69694 64.8382 5.82227 63.9268 5.89062C63.0381 5.95898 62.138 5.99316 61.2266 5.99316C60.224 5.99316 58.5833 5.91341 56.3047 5.75391C54.0488 5.5944 50.9954 5.22982 47.1445 4.66016C44.957 4.34115 43.0771 4.09049 41.5049 3.9082C39.9326 3.70312 38.5768 3.55501 37.4375 3.46387C36.321 3.34993 35.3867 3.28158 34.6348 3.25879C33.9056 3.21322 33.2904 3.19043 32.7891 3.19043C30.7839 3.19043 28.904 3.4069 27.1494 3.83984C25.3949 4.25 23.7314 4.85384 22.1592 5.65137C20.9515 6.28939 19.8236 7.04134 18.7754 7.90723C17.75 8.75033 16.8613 9.68457 16.1094 10.71C15.3574 11.7126 14.765 12.7721 14.332 13.8887C13.8991 14.9824 13.6826 16.0876 13.6826 17.2041C13.6826 18.1611 13.8649 19.027 14.2295 19.8018C14.5941 20.5537 15.0954 21.1917 15.7334 21.7158C16.3942 22.2171 17.1689 22.6045 18.0576 22.8779C18.9691 23.1514 19.9603 23.2881 21.0312 23.2881C21.8516 23.2881 22.763 23.2083 23.7656 23.0488C24.7682 22.8893 25.8164 22.5931 26.9102 22.1602C28.0039 21.7272 29.1432 21.1348 30.3281 20.3828C31.513 19.6309 32.7093 18.6624 33.917 17.4775C35.2158 16.1787 36.3324 14.8457 37.2666 13.4785C37.6995 12.8861 38.0983 12.2822 38.4629 11.667C38.8503 11.029 39.2262 10.3796 39.5908 9.71875H40.7871C40.4909 10.4479 40.1719 11.1771 39.8301 11.9062C39.4883 12.6354 39.1237 13.3304 38.7363 13.9912C37.9388 15.404 36.959 16.7484 35.7969 18.0244C34.8854 19.027 33.8828 19.9385 32.7891 20.7588C31.7181 21.5791 30.5674 22.2855 29.3369 22.8779C28.1292 23.4704 26.8532 23.9375 25.5088 24.2793C24.1872 24.5983 22.8428 24.7578 21.4756 24.7578C20.1084 24.7578 18.8551 24.5869 17.7158 24.2451C16.5765 23.8805 15.5967 23.3678 14.7764 22.707C13.9788 22.0462 13.3522 21.2487 12.8965 20.3145C12.4408 19.3574 12.2129 18.2979 12.2129 17.1357C12.2129 15.9053 12.418 14.7204 12.8281 13.5811C13.2611 12.4417 13.8307 11.3594 14.5371 10.334C15.5625 8.85286 16.7702 7.58822 18.1602 6.54004C19.5729 5.46908 21.0654 4.54622 22.6377 3.77148C23.7314 3.2474 24.8252 2.80306 25.9189 2.43848C27.0355 2.07389 28.1862 1.78906 29.3711 1.58398C30.556 1.35612 31.7751 1.19661 33.0283 1.10547C34.2816 1.01432 35.6032 0.96875 36.9932 0.96875C38.5426 0.96875 40.1149 1.02572 41.71 1.13965C43.305 1.25358 44.8203 1.3903 46.2559 1.5498C47.7142 1.68652 49.0358 1.84603 50.2207 2.02832C51.4284 2.18783 52.431 2.32454 53.2285 2.43848C55.1882 2.71191 56.863 2.92839 58.2529 3.08789C59.6657 3.2474 60.8278 3.36133 61.7393 3.42969C62.6735 3.49805 63.4027 3.54362 63.9268 3.56641C64.4508 3.56641 64.8268 3.56641 65.0547 3.56641C66.194 3.56641 67.2308 3.49805 68.165 3.36133C69.0993 3.22461 69.9424 3.04232 70.6943 2.81445C71.4463 2.5638 72.1185 2.29036 72.7109 1.99414C73.3262 1.69792 73.8844 1.37891 74.3857 1.03711L75.2061 1.85742ZM54.0146 7.97559C52.4652 9.22884 51.041 10.5049 49.7422 11.8037C48.4661 13.0798 47.2357 14.4355 46.0508 15.8711C44.8887 17.2839 43.7266 18.7992 42.5645 20.417C41.4251 22.0348 40.2288 23.8122 38.9756 25.749L36.1045 30.1582C35.4893 31.0924 34.8398 32.0723 34.1562 33.0977C33.4954 34.123 32.7435 35.1712 31.9004 36.2422C31.0801 37.3132 30.1458 38.3955 29.0977 39.4893C28.0723 40.583 26.8988 41.6654 25.5771 42.7363C24.4606 43.6478 23.2985 44.4795 22.0908 45.2314C20.8831 45.9834 19.6071 46.6328 18.2627 47.1797C16.9411 47.7038 15.5283 48.1139 14.0244 48.4102C12.5433 48.7064 10.9596 48.8545 9.27344 48.8545C7.47331 48.8545 5.98079 48.6722 4.7959 48.3076C3.611 47.9658 2.66536 47.5215 1.95898 46.9746C1.2526 46.4277 0.762695 45.8239 0.489258 45.1631C0.193034 44.5023 0.0449219 43.8643 0.0449219 43.249C0.0449219 42.6338 0.193034 42.0299 0.489258 41.4375C0.762695 40.8451 1.13867 40.3096 1.61719 39.8311C2.07292 39.3525 2.58561 38.9766 3.15527 38.7031C3.72493 38.4069 4.2946 38.2588 4.86426 38.2588C5.57064 38.2588 6.11751 38.4753 6.50488 38.9082C6.86947 39.3184 7.05176 39.7855 7.05176 40.3096C7.05176 40.9476 6.85807 41.4717 6.4707 41.8818C6.06055 42.2692 5.57064 42.4629 5.00098 42.4629C4.88704 42.4629 4.7959 42.4629 4.72754 42.4629C4.65918 42.4629 4.56803 42.4401 4.4541 42.3945C4.38574 42.349 4.30599 42.3262 4.21484 42.3262C4.1237 42.3262 4.04395 42.3034 3.97559 42.2578C3.74772 42.1895 3.56543 42.1439 3.42871 42.1211C3.26921 42.0755 3.12109 42.0527 2.98438 42.0527C2.55143 42.0527 2.22103 42.2122 1.99316 42.5312C1.7653 42.8503 1.65137 43.2262 1.65137 43.6592C1.65137 44.0693 1.78809 44.5023 2.06152 44.958C2.33496 45.391 2.75651 45.7897 3.32617 46.1543C3.87305 46.5189 4.59082 46.8151 5.47949 47.043C6.36816 47.2708 7.42773 47.3848 8.6582 47.3848C10.1849 47.3848 11.5863 47.2253 12.8623 46.9062C14.1611 46.5645 15.346 46.1201 16.417 45.5732C17.5107 45.0264 18.5133 44.4111 19.4248 43.7275C20.3363 43.0212 21.1794 42.3034 21.9541 41.5742C22.7972 40.7767 23.5719 39.9906 24.2783 39.2158C25.0075 38.4183 25.6911 37.6208 26.3291 36.8232C26.9899 36.0257 27.6279 35.2168 28.2432 34.3965C28.8584 33.5534 29.485 32.6989 30.123 31.833L32.7207 28.3467C34.0195 26.6149 35.3525 24.8604 36.7197 23.083C38.0869 21.3057 39.5794 19.5283 41.1973 17.751C42.8151 15.9736 44.5924 14.1963 46.5293 12.4189C48.4889 10.6188 50.6992 8.83008 53.1602 7.05273L54.0146 7.97559ZM62.6279 9.20605C61.8988 9.93522 61.1126 10.7669 60.2695 11.7012C59.4264 12.6126 58.4808 13.695 57.4326 14.9482C56.3844 16.2015 55.2109 17.6598 53.9121 19.3232C52.6133 20.9639 51.1549 22.8893 49.5371 25.0996C48.0104 27.1732 46.6888 29.0189 45.5723 30.6367C44.4557 32.2546 43.4987 33.6901 42.7012 34.9434C41.9036 36.1966 41.2314 37.3018 40.6846 38.2588C40.1377 39.193 39.682 40.0133 39.3174 40.7197C38.9528 41.4489 38.6566 42.0869 38.4287 42.6338C38.2008 43.1579 38.0186 43.625 37.8818 44.0352C37.7679 44.4225 37.6882 44.7529 37.6426 45.0264C37.597 45.277 37.5742 45.4935 37.5742 45.6758C37.5742 46.2682 37.7109 46.6898 37.9844 46.9404C38.2578 47.1911 38.611 47.3164 39.0439 47.3164C39.5225 47.3164 40.0693 47.1911 40.6846 46.9404C41.3226 46.6898 41.9378 46.3936 42.5303 46.0518C43.1455 45.71 43.7038 45.3796 44.2051 45.0605C44.7064 44.7415 45.0596 44.5137 45.2646 44.377C46.5407 43.4883 47.8395 42.5085 49.1611 41.4375C50.5055 40.3665 51.7018 39.3525 52.75 38.3955L53.6045 39.3867C53.0804 39.888 52.5107 40.4235 51.8955 40.9932C51.2803 41.54 50.6423 42.0869 49.9814 42.6338C49.3434 43.1579 48.7054 43.6706 48.0674 44.1719C47.4294 44.6504 46.8255 45.0833 46.2559 45.4707C45.071 46.2682 44.0342 46.8835 43.1455 47.3164C42.2796 47.7493 41.5277 48.0798 40.8896 48.3076C40.2744 48.5355 39.7617 48.6722 39.3516 48.7178C38.9642 48.7633 38.668 48.7861 38.4629 48.7861C38.235 48.7861 37.9388 48.752 37.5742 48.6836C37.2324 48.638 36.8906 48.4899 36.5488 48.2393C36.207 47.9886 35.9108 47.624 35.6602 47.1455C35.4323 46.667 35.3184 45.9948 35.3184 45.1289C35.3184 43.9668 35.5234 42.7477 35.9336 41.4717C36.3438 40.1729 36.9134 38.7829 37.6426 37.3018C39.0326 34.4307 40.582 31.7988 42.291 29.4062C44.0228 27.0137 45.9027 24.6667 47.9307 22.3652C48.8421 21.3626 49.9017 20.2233 51.1094 18.9473C52.3171 17.6712 53.5589 16.3952 54.835 15.1191C56.111 13.8203 57.3529 12.5785 58.5605 11.3936C59.7682 10.2087 60.8392 9.18327 61.7734 8.31738L62.6279 9.20605ZM71.4805 37.5752C71.7083 37.7575 72.0046 37.917 72.3691 38.0537C72.7565 38.1904 73.0869 38.2816 73.3604 38.3271C73.6338 38.3727 73.93 38.3955 74.249 38.3955C74.4313 38.3955 74.6022 38.3955 74.7617 38.3955C74.944 38.3955 75.1263 38.3727 75.3086 38.3271C75.6732 38.2588 76.0492 38.1562 76.4365 38.0195C76.8467 37.86 77.1999 37.7119 77.4961 37.5752L77.9746 38.5664C77.1999 39.0449 76.4593 39.3525 75.7529 39.4893C75.0465 39.6032 74.4769 39.6602 74.0439 39.6602C73.8389 39.6602 73.6224 39.6488 73.3945 39.626C73.1667 39.6032 72.9388 39.569 72.7109 39.5234C72.3691 39.4551 72.0273 39.3525 71.6855 39.2158C71.3438 39.0791 71.0133 38.8854 70.6943 38.6348C70.1019 39.4095 69.4867 40.1501 68.8486 40.8564C68.2106 41.54 67.5612 42.2122 66.9004 42.873C66.2396 43.5339 65.5446 44.1833 64.8154 44.8213C64.0863 45.4365 63.3115 46.0062 62.4912 46.5303C62.0127 46.8493 61.4886 47.1569 60.9189 47.4531C60.3265 47.7493 59.734 48.0114 59.1416 48.2393C58.5492 48.4671 57.9567 48.6494 57.3643 48.7861C56.7718 48.9229 56.2021 48.9912 55.6553 48.9912C54.3792 48.9912 53.3652 48.6266 52.6133 47.8975C51.8385 47.1683 51.4512 46.1543 51.4512 44.8555C51.4512 43.8529 51.6904 42.7933 52.1689 41.6768C52.6247 40.5374 53.2285 39.4095 53.9805 38.293C54.7324 37.1764 55.5869 36.1169 56.5439 35.1143C57.4782 34.0889 58.4124 33.1774 59.3467 32.3799C60.2126 31.6735 61.181 30.9785 62.252 30.2949C63.3001 29.5885 64.3711 28.9733 65.4648 28.4492C66.5586 27.9023 67.641 27.4694 68.7119 27.1504C69.8057 26.8086 70.7969 26.6377 71.6855 26.6377C72.4603 26.6377 73.0641 26.763 73.4971 27.0137C73.93 27.2643 74.249 27.5605 74.4541 27.9023C74.6592 28.2441 74.7845 28.5859 74.8301 28.9277C74.8757 29.2695 74.8984 29.5316 74.8984 29.7139C74.8984 30.2835 74.7959 30.9102 74.5908 31.5938C74.3857 32.2773 74.1123 32.9837 73.7705 33.7129C73.4515 34.4193 73.0869 35.1143 72.6768 35.7979C72.2894 36.4587 71.8906 37.0511 71.4805 37.5752ZM73.2236 30.9102C73.292 30.7279 73.3262 30.5456 73.3262 30.3633C73.349 30.181 73.3604 30.0215 73.3604 29.8848C73.3604 29.4974 73.292 29.2012 73.1553 28.9961C73.0413 28.7682 72.8932 28.5973 72.7109 28.4834C72.5286 28.3695 72.335 28.3011 72.1299 28.2783C71.9476 28.2555 71.7995 28.2441 71.6855 28.2441C71.4349 28.2441 71.1842 28.2783 70.9336 28.3467C70.7057 28.415 70.4665 28.4834 70.2158 28.5518C69.7145 28.734 69.236 28.9505 68.7803 29.2012C68.3245 29.4518 67.8688 29.7253 67.4131 30.0215C66.251 30.7962 65.1686 31.6165 64.166 32.4824C63.1634 33.3255 62.1152 34.2712 61.0215 35.3193C60.224 36.1169 59.3809 37.0169 58.4922 38.0195C57.5807 39.0221 56.7035 40.1045 55.8604 41.2666C55.3818 41.9274 55.0059 42.4971 54.7324 42.9756C54.459 43.4541 54.2539 43.8643 54.1172 44.2061C53.9805 44.5479 53.9007 44.8327 53.8779 45.0605C53.8324 45.2656 53.8096 45.4251 53.8096 45.5391C53.8096 46.0404 54.0033 46.4961 54.3906 46.9062C54.778 47.3164 55.4046 47.5215 56.2705 47.5215C56.7946 47.5215 57.3415 47.4417 57.9111 47.2822C58.458 47.1227 59.0049 46.9176 59.5518 46.667C60.0758 46.4163 60.5885 46.1315 61.0898 45.8125C61.5911 45.4935 62.0583 45.1745 62.4912 44.8555C63.2204 44.2858 63.9268 43.6934 64.6104 43.0781C65.2939 42.4401 65.9661 41.7907 66.627 41.1299C67.1966 40.5374 67.7549 39.945 68.3018 39.3525C68.8714 38.7601 69.4183 38.1449 69.9424 37.5068C69.8285 37.2106 69.7373 36.9258 69.6689 36.6523C69.6006 36.3789 69.5664 36.0827 69.5664 35.7637C69.5664 35.194 69.6803 34.6243 69.9082 34.0547C70.1361 33.485 70.4437 32.9495 70.8311 32.4482C71.264 31.9014 71.6742 31.5254 72.0615 31.3203C72.4489 31.1152 72.8363 30.9785 73.2236 30.9102ZM104.601 39.8652C103.894 40.5944 103.222 41.2438 102.584 41.8135C101.969 42.3831 101.365 42.9186 100.772 43.4199C100.18 43.9212 99.599 44.3997 99.0293 44.8555C98.4596 45.2884 97.8672 45.7327 97.252 46.1885C97.1152 46.2796 96.8304 46.4733 96.3975 46.7695C95.9645 47.0658 95.4632 47.3734 94.8936 47.6924C94.3239 48.0114 93.7201 48.2962 93.082 48.5469C92.4668 48.7975 91.8971 48.9229 91.373 48.9229C91.0312 48.9229 90.7008 48.8659 90.3818 48.752C90.0628 48.638 89.778 48.4557 89.5273 48.2051C89.2767 47.9772 89.083 47.681 88.9463 47.3164C88.7868 46.929 88.707 46.4619 88.707 45.915C88.707 44.7529 89.0488 43.4883 89.7324 42.1211C90.416 40.7539 91.4072 39.2842 92.7061 37.7119L99.8838 28.8936C99.6559 28.848 99.3711 28.8252 99.0293 28.8252C98.6875 28.8252 98.266 28.9163 97.7646 29.0986C97.2633 29.2581 96.6937 29.543 96.0557 29.9531C95.4176 30.3405 94.6885 30.9215 93.8682 31.6963C93.139 32.4027 92.2731 33.3027 91.2705 34.3965C90.2679 35.4902 89.0374 36.9714 87.5791 38.8398C86.4626 40.2526 85.3802 41.6084 84.332 42.9072C83.2839 44.2061 82.1787 45.3454 81.0166 46.3252C80.3102 46.9176 79.5127 47.4645 78.624 47.9658C77.7354 48.4443 76.71 48.6836 75.5479 48.6836C74.3402 48.6836 73.4173 48.3988 72.7793 47.8291C72.1413 47.2367 71.8223 46.4049 71.8223 45.334C71.8223 44.6732 71.9362 44.0579 72.1641 43.4883C72.3919 42.8958 72.6768 42.3945 73.0186 41.9844C73.8389 40.959 74.8643 40.4463 76.0947 40.4463C76.2314 40.4463 76.3796 40.4577 76.5391 40.4805C76.6758 40.5033 76.8125 40.5374 76.9492 40.583C77.1315 40.6514 77.3366 40.7881 77.5645 40.9932C77.7923 41.1982 77.9062 41.5514 77.9062 42.0527C77.9062 42.1667 77.8949 42.2806 77.8721 42.3945C77.8493 42.5085 77.8151 42.6224 77.7695 42.7363C77.6328 43.0326 77.4733 43.2718 77.291 43.4541C77.0859 43.6364 76.8353 43.7617 76.5391 43.8301C76.2428 43.8984 75.9352 43.9554 75.6162 44.001C75.3656 44.0465 75.1035 44.1035 74.8301 44.1719C74.5566 44.2174 74.306 44.3086 74.0781 44.4453C73.8275 44.5592 73.6224 44.7188 73.4629 44.9238C73.3034 45.1289 73.2236 45.3796 73.2236 45.6758C73.2236 45.8581 73.2578 46.0518 73.3262 46.2568C73.3717 46.4619 73.4629 46.6556 73.5996 46.8379C73.7363 47.0202 73.9414 47.1683 74.2148 47.2822C74.4655 47.3962 74.7959 47.4531 75.2061 47.4531C76.3226 47.4531 77.3252 47.1569 78.2139 46.5645C79.1025 45.972 79.9115 45.3112 80.6406 44.582C81.0964 44.1263 81.5521 43.6592 82.0078 43.1807C82.4635 42.6794 82.8965 42.1667 83.3066 41.6426C83.8307 41.0046 84.332 40.3779 84.8105 39.7627C85.2891 39.1247 85.7904 38.4867 86.3145 37.8486C86.6562 37.4385 87.112 36.903 87.6816 36.2422C88.2513 35.5814 88.8438 34.8978 89.459 34.1914C90.097 33.4622 90.735 32.7673 91.373 32.1064C92.0111 31.4229 92.5921 30.8646 93.1162 30.4316C94.3923 29.3379 95.6569 28.5404 96.9102 28.0391C98.1634 27.5378 99.5762 27.2871 101.148 27.2871C101.673 27.2871 102.197 27.3213 102.721 27.3896C103.268 27.4352 103.803 27.515 104.327 27.6289L91.7148 44.0693C91.3503 44.5251 91.0426 44.9466 90.792 45.334C90.5641 45.6986 90.4502 46.0745 90.4502 46.4619C90.4502 46.5986 90.5072 46.8037 90.6211 47.0771C90.735 47.3278 91.054 47.4531 91.5781 47.4531C91.806 47.4531 92.068 47.4189 92.3643 47.3506C92.6605 47.2594 93.0023 47.1227 93.3896 46.9404C93.7998 46.7354 94.2555 46.4733 94.7568 46.1543C95.2809 45.8125 95.8734 45.4023 96.5342 44.9238C96.762 44.7415 97.1038 44.4795 97.5596 44.1377C98.0153 43.7959 98.5508 43.3743 99.166 42.873C99.804 42.3717 100.499 41.8021 101.251 41.1641C102.003 40.5033 102.789 39.7741 103.609 38.9766L104.601 39.8652ZM120.323 27.6289L108.121 43.3857C107.939 43.5908 107.734 43.8984 107.506 44.3086C107.278 44.696 107.084 44.9922 106.925 45.1973C106.811 45.3796 106.731 45.5618 106.686 45.7441C106.617 45.9264 106.583 46.1429 106.583 46.3936C106.583 46.7809 106.708 47.0544 106.959 47.2139C107.21 47.3734 107.506 47.4531 107.848 47.4531C108.235 47.4531 108.679 47.3734 109.181 47.2139C109.659 47.0544 110.16 46.8607 110.685 46.6328C111.186 46.3822 111.699 46.1087 112.223 45.8125C112.724 45.4935 113.18 45.1973 113.59 44.9238C115.276 43.7617 117.019 42.3262 118.819 40.6172C120.642 38.8854 122.397 37.0511 124.083 35.1143C125.154 33.9294 126.157 32.7103 127.091 31.457C128.048 30.2038 128.982 28.9277 129.894 27.6289H133.961L121.349 44.0693C121.007 44.5251 120.711 44.9466 120.46 45.334C120.209 45.6986 120.084 46.0745 120.084 46.4619C120.084 46.5986 120.141 46.8037 120.255 47.0771C120.369 47.3278 120.688 47.4531 121.212 47.4531C121.508 47.4531 121.907 47.3734 122.408 47.2139C122.91 47.0316 123.627 46.6442 124.562 46.0518C124.858 45.8695 125.131 45.6872 125.382 45.5049C125.632 45.3226 125.906 45.1289 126.202 44.9238C126.43 44.7415 126.772 44.4795 127.228 44.1377C127.683 43.7959 128.219 43.3743 128.834 42.873C129.449 42.3717 130.133 41.8021 130.885 41.1641C131.637 40.5033 132.423 39.7741 133.243 38.9766L134.234 39.8652C133.551 40.5944 132.901 41.2438 132.286 41.8135C131.671 42.3831 131.056 42.9186 130.44 43.4199C129.848 43.9212 129.256 44.3997 128.663 44.8555C128.093 45.2884 127.501 45.7327 126.886 46.1885C126.726 46.3024 126.43 46.5189 125.997 46.8379C125.587 47.1341 125.097 47.4417 124.527 47.7607C123.98 48.057 123.388 48.319 122.75 48.5469C122.135 48.7975 121.554 48.9229 121.007 48.9229C120.392 48.9229 119.902 48.7975 119.537 48.5469C119.195 48.2962 118.933 48 118.751 47.6582C118.591 47.3164 118.489 46.9746 118.443 46.6328C118.421 46.291 118.409 46.029 118.409 45.8467C118.409 45.6188 118.409 45.4137 118.409 45.2314C118.409 45.0492 118.432 44.8555 118.478 44.6504C118.523 44.2174 118.591 43.8073 118.683 43.4199C118.774 43.0098 118.876 42.6224 118.99 42.2578C118.124 43.0326 117.213 43.8073 116.256 44.582C115.299 45.334 114.342 46.0062 113.385 46.5986C113.157 46.7354 112.815 46.9404 112.359 47.2139C111.904 47.4645 111.402 47.7152 110.855 47.9658C110.286 48.2165 109.705 48.4329 109.112 48.6152C108.52 48.8203 107.962 48.9229 107.438 48.9229C106.663 48.9229 106.002 48.695 105.455 48.2393C104.908 47.7835 104.635 47.0316 104.635 45.9834C104.635 45.5505 104.692 45.0605 104.806 44.5137C104.92 43.944 105.113 43.3288 105.387 42.668C105.66 41.9844 106.048 41.2324 106.549 40.4121C107.027 39.5918 107.643 38.6917 108.395 37.7119L116.188 27.6289H120.323ZM149.273 27.6289L140.934 38.2588C141.253 38.0081 141.663 37.7005 142.164 37.3359C142.665 36.9486 143.201 36.584 143.771 36.2422C144.317 35.9004 144.864 35.6042 145.411 35.3535C145.935 35.1029 146.38 34.9775 146.744 34.9775C146.995 34.9775 147.223 35.0231 147.428 35.1143C147.633 35.1826 147.826 35.2738 148.009 35.3877C148.237 35.5472 148.465 35.7181 148.692 35.9004C148.943 36.0827 149.228 36.1738 149.547 36.1738C149.752 36.1738 149.98 36.1283 150.23 36.0371C150.481 35.9232 150.72 35.7979 150.948 35.6611C151.199 35.5016 151.427 35.3421 151.632 35.1826C151.86 35.0003 152.053 34.8408 152.213 34.7041C152.737 34.2484 153.261 33.7243 153.785 33.1318C154.332 32.5394 154.833 31.9469 155.289 31.3545L158.16 27.6289H162.228L149.615 44.0693C149.273 44.5251 149.023 44.8783 148.863 45.1289C148.704 45.3568 148.59 45.5618 148.521 45.7441C148.476 45.8581 148.43 45.972 148.385 46.0859C148.362 46.1999 148.351 46.3252 148.351 46.4619C148.351 46.5303 148.362 46.6214 148.385 46.7354C148.408 46.8493 148.453 46.9632 148.521 47.0771C148.613 47.1683 148.727 47.2594 148.863 47.3506C149.023 47.4189 149.228 47.4531 149.479 47.4531C149.729 47.4531 150.003 47.4189 150.299 47.3506C150.595 47.2594 150.937 47.1227 151.324 46.9404C151.734 46.7354 152.19 46.4733 152.691 46.1543C153.215 45.8125 153.808 45.4023 154.469 44.9238C154.924 44.5592 155.802 43.8757 157.101 42.873C158.399 41.8477 159.881 40.5488 161.544 38.9766L162.501 39.8652C161.795 40.5944 161.134 41.2438 160.519 41.8135C159.903 42.3831 159.299 42.9186 158.707 43.4199C158.115 43.9212 157.522 44.3997 156.93 44.8555C156.36 45.2884 155.768 45.7327 155.152 46.1885C155.038 46.2796 154.765 46.4733 154.332 46.7695C153.899 47.0658 153.398 47.3734 152.828 47.6924C152.258 48.0114 151.655 48.2962 151.017 48.5469C150.379 48.7975 149.798 48.9229 149.273 48.9229C148.704 48.9229 148.225 48.7861 147.838 48.5127C147.473 48.2393 147.188 47.9316 146.983 47.5898C146.824 47.3392 146.721 47.0771 146.676 46.8037C146.63 46.5303 146.607 46.2568 146.607 45.9834C146.607 45.0264 146.778 44.1263 147.12 43.2832C147.485 42.4173 147.895 41.6312 148.351 40.9248C148.715 40.3551 149.08 39.8083 149.444 39.2842C149.832 38.7601 150.219 38.236 150.606 37.7119L151.598 36.3789C151.347 36.5612 151.108 36.7207 150.88 36.8574C150.675 36.9941 150.447 37.1423 150.196 37.3018C149.946 37.4385 149.695 37.5752 149.444 37.7119C149.216 37.8486 148.977 37.9854 148.727 38.1221C148.499 38.236 148.282 38.3385 148.077 38.4297C147.872 38.5208 147.644 38.5664 147.394 38.5664C147.28 38.5664 147.12 38.5322 146.915 38.4639C146.71 38.3955 146.402 38.236 145.992 37.9854C145.81 37.8714 145.593 37.7575 145.343 37.6436C145.092 37.5068 144.841 37.4385 144.591 37.4385C144.226 37.4385 143.896 37.5524 143.6 37.7803C143.189 38.0309 142.643 38.4069 141.959 38.9082C141.275 39.3867 140.466 40.0817 139.532 40.9932C139.054 41.4945 138.587 41.9958 138.131 42.4971C137.675 42.9756 137.242 43.4769 136.832 44.001C136.308 44.639 135.807 45.2884 135.328 45.9492C134.827 46.61 134.348 47.2936 133.893 48H129.894L145.206 27.6289H149.273ZM176.617 27.6289L166.192 41.1982C165.965 41.4489 165.759 41.7109 165.577 41.9844C165.395 42.235 165.201 42.4857 164.996 42.7363C164.632 43.1921 164.324 43.6592 164.073 44.1377C163.8 44.5934 163.663 45.0833 163.663 45.6074C163.663 46.0632 163.754 46.4391 163.937 46.7354C164.21 47.1683 164.563 47.4303 164.996 47.5215C165.406 47.6126 165.759 47.6582 166.056 47.6582C166.261 47.6582 166.466 47.6468 166.671 47.624C166.876 47.6012 167.081 47.5671 167.286 47.5215C167.674 47.4531 168.061 47.3392 168.448 47.1797C168.813 47.0202 169.177 46.8493 169.542 46.667C169.975 46.4619 170.374 46.2227 170.738 45.9492C171.08 45.6758 171.422 45.3796 171.764 45.0605C172.424 44.4225 173.006 43.7048 173.507 42.9072C173.985 42.1097 174.384 41.3122 174.703 40.5146C174.156 40.1501 173.735 39.6943 173.438 39.1475C173.119 38.5778 172.96 37.9398 172.96 37.2334C172.96 36.96 172.994 36.6751 173.062 36.3789C173.131 36.0599 173.245 35.7751 173.404 35.5244C173.541 35.251 173.735 35.0345 173.985 34.875C174.236 34.7155 174.532 34.6357 174.874 34.6357C175.421 34.6357 175.865 34.875 176.207 35.3535C176.572 35.8092 176.754 36.4587 176.754 37.3018C176.754 38.1449 176.617 38.9082 176.344 39.5918C176.686 39.7285 177.073 39.7969 177.506 39.7969C178.235 39.7969 178.896 39.6715 179.488 39.4209C180.081 39.1702 180.593 38.8854 181.026 38.5664C181.505 38.2018 182.029 37.7461 182.599 37.1992C183.168 36.6296 183.67 36.0485 184.103 35.4561L189.981 27.6289H194.049L181.437 44.0693C181.095 44.5251 180.799 44.9466 180.548 45.334C180.297 45.6986 180.172 46.0745 180.172 46.4619C180.172 46.5986 180.229 46.8037 180.343 47.0771C180.457 47.3278 180.776 47.4531 181.3 47.4531C181.573 47.4531 181.961 47.3734 182.462 47.2139C182.986 47.0316 183.715 46.6442 184.649 46.0518C184.946 45.8695 185.219 45.6872 185.47 45.5049C185.72 45.3226 185.982 45.1289 186.256 44.9238C186.484 44.7415 186.826 44.4795 187.281 44.1377C187.737 43.7959 188.272 43.3743 188.888 42.873C189.526 42.3717 190.221 41.8021 190.973 41.1641C191.725 40.5033 192.511 39.7741 193.331 38.9766L194.322 39.8652C193.616 40.5944 192.955 41.2438 192.34 41.8135C191.725 42.3831 191.121 42.9186 190.528 43.4199C189.936 43.9212 189.343 44.3997 188.751 44.8555C188.181 45.2884 187.589 45.7327 186.974 46.1885C186.677 46.3936 186.404 46.5872 186.153 46.7695C185.903 46.9518 185.641 47.1341 185.367 47.3164C185.094 47.4987 184.775 47.681 184.41 47.8633C184.046 48.0456 183.67 48.2165 183.282 48.376C182.895 48.5355 182.507 48.6608 182.12 48.752C181.756 48.8659 181.414 48.9229 181.095 48.9229C180.844 48.9229 180.559 48.8773 180.24 48.7861C179.944 48.7178 179.659 48.5697 179.386 48.3418C179.112 48.1139 178.884 47.8177 178.702 47.4531C178.52 47.0658 178.429 46.5758 178.429 45.9834C178.429 45.6188 178.44 45.277 178.463 44.958C178.508 44.639 178.588 44.32 178.702 44.001C178.884 43.4313 179.181 42.7705 179.591 42.0186C180.024 41.2438 180.457 40.583 180.89 40.0361C180.639 40.2184 180.388 40.3665 180.138 40.4805C179.887 40.5716 179.625 40.6742 179.352 40.7881C179.033 40.902 178.702 40.9932 178.36 41.0615C178.019 41.1071 177.688 41.1299 177.369 41.1299C176.936 41.1299 176.469 41.0615 175.968 40.9248C175.58 41.9502 175.079 42.93 174.464 43.8643C173.871 44.7985 173.188 45.6188 172.413 46.3252C171.456 47.1683 170.385 47.8177 169.2 48.2734C167.993 48.752 166.819 48.9912 165.68 48.9912C165.361 48.9912 165.053 48.9684 164.757 48.9229C164.438 48.8773 164.119 48.7747 163.8 48.6152C163.321 48.4102 162.945 48.1595 162.672 47.8633C162.398 47.5443 162.193 47.2139 162.057 46.8721C161.92 46.5303 161.829 46.1885 161.783 45.8467C161.738 45.5049 161.715 45.1973 161.715 44.9238C161.715 44.4225 161.76 43.944 161.852 43.4883C161.943 43.0326 162.057 42.5768 162.193 42.1211C162.535 41.0957 163.048 40.1159 163.731 39.1816C164.415 38.2246 165.156 37.222 165.953 36.1738L172.55 27.6289H176.617ZM243.199 6.64258C243.131 7.55404 242.937 8.65918 242.618 9.95801C242.299 11.234 241.718 12.624 240.875 14.1279C240.237 15.2217 239.462 16.2812 238.551 17.3066C237.662 18.332 236.671 19.2435 235.577 20.041C234.506 20.8158 233.378 21.4424 232.193 21.9209C231.008 22.3766 229.824 22.6045 228.639 22.6045C227.818 22.6045 227.055 22.4792 226.349 22.2285C225.665 21.9779 225.073 21.6133 224.571 21.1348C224.093 20.6562 223.717 20.0752 223.443 19.3916C223.17 18.708 223.033 17.9333 223.033 17.0674C223.033 16.4066 223.136 15.6774 223.341 14.8799C223.546 14.0824 223.876 13.262 224.332 12.4189C224.811 11.5758 225.414 10.7214 226.144 9.85547C226.873 8.98958 227.75 8.14648 228.775 7.32617C230.803 5.70833 233.082 4.43229 235.611 3.49805C238.141 2.5638 240.715 2.09668 243.336 2.09668C244.863 2.09668 246.196 2.29036 247.335 2.67773C248.474 3.04232 249.409 3.55501 250.138 4.21582C250.89 4.85384 251.448 5.5944 251.812 6.4375C252.177 7.2806 252.359 8.15788 252.359 9.06934C252.359 9.91243 252.211 10.7783 251.915 11.667C251.619 12.5329 251.231 13.3988 250.753 14.2646C250.274 15.1077 249.739 15.9395 249.146 16.7598C248.554 17.5573 247.962 18.3092 247.369 19.0156L230.724 38.6348C229.516 40.0247 228.502 41.2666 227.682 42.3604C226.861 43.4313 226.451 44.3997 226.451 45.2656C226.451 45.7897 226.633 46.2227 226.998 46.5645C227.385 46.9062 227.932 47.0771 228.639 47.0771C229.299 47.0771 230.051 46.8835 230.895 46.4961C231.76 46.0859 232.615 45.6188 233.458 45.0947C234.301 44.5706 235.064 44.0465 235.748 43.5225C236.432 42.9984 236.933 42.5996 237.252 42.3262C238.688 41.1641 240.226 39.8083 241.866 38.2588C243.507 36.6865 245.216 34.9548 246.993 33.0635C248.793 31.1722 250.639 29.1214 252.53 26.9111C254.422 24.6781 256.324 22.3083 258.238 19.8018L271.397 2.71191H275.875L248.497 38.6348C247.95 39.3639 247.426 40.0361 246.925 40.6514C246.446 41.2666 246.013 41.8477 245.626 42.3945C245.239 42.9186 244.931 43.4199 244.703 43.8984C244.475 44.377 244.361 44.8327 244.361 45.2656C244.361 45.7897 244.544 46.2227 244.908 46.5645C245.296 46.9062 245.842 47.0771 246.549 47.0771C247.21 47.0771 247.973 46.8835 248.839 46.4961C249.705 46.0859 250.548 45.6188 251.368 45.0947C252.211 44.5706 252.975 44.0465 253.658 43.5225C254.342 42.9984 254.843 42.5996 255.162 42.3262C256.598 41.1641 258.136 39.8083 259.776 38.2588C261.417 36.6865 263.126 34.9548 264.903 33.0635C266.703 31.1722 268.549 29.1214 270.44 26.9111C272.332 24.6781 274.234 22.3083 276.148 19.8018L289.308 2.71191H293.785L264.459 41.1982C263.753 42.1325 263.217 42.8617 262.853 43.3857C262.488 43.9098 262.215 44.3997 262.032 44.8555C261.873 45.1061 261.793 45.3796 261.793 45.6758C261.793 45.9036 261.816 46.1087 261.861 46.291C261.93 46.4505 262.078 46.5986 262.306 46.7354C262.579 46.8721 262.875 46.9404 263.194 46.9404C263.445 46.9404 263.753 46.9062 264.117 46.8379C264.505 46.7467 264.972 46.5986 265.519 46.3936C266.065 46.1885 266.703 45.8923 267.433 45.5049C268.185 45.1175 269.039 44.6162 269.996 44.001C271.295 43.2035 272.582 42.349 273.858 41.4375C275.157 40.526 276.524 39.4665 277.96 38.2588L278.951 39.25C277.607 40.3893 276.285 41.4375 274.986 42.3945C273.71 43.3516 272.354 44.263 270.919 45.1289C270.486 45.4023 270.042 45.6644 269.586 45.915C269.153 46.1657 268.709 46.4163 268.253 46.667C266.817 47.3962 265.655 47.8633 264.767 48.0684C263.878 48.2962 263.217 48.4102 262.784 48.4102C262.123 48.4102 261.576 48.3076 261.144 48.1025C260.733 47.8975 260.403 47.6354 260.152 47.3164C259.924 46.9974 259.754 46.6442 259.64 46.2568C259.549 45.8695 259.503 45.4935 259.503 45.1289C259.503 44.696 259.549 44.2858 259.64 43.8984C259.731 43.5111 259.845 43.1237 259.981 42.7363C260.187 42.2122 260.426 41.6654 260.699 41.0957C260.995 40.5033 261.303 39.9222 261.622 39.3525C261.964 38.7601 262.306 38.2018 262.647 37.6777C262.989 37.1309 263.32 36.6523 263.639 36.2422C263.115 36.8118 262.568 37.3701 261.998 37.917C261.451 38.4639 260.893 39.0221 260.323 39.5918C259.549 40.321 258.774 41.0501 257.999 41.7793C257.224 42.5085 256.415 43.2035 255.572 43.8643C254.228 44.9352 253.032 45.7783 251.983 46.3936C250.958 47.0088 250.058 47.4759 249.283 47.7949C248.508 48.0911 247.859 48.2734 247.335 48.3418C246.834 48.4329 246.435 48.4785 246.139 48.4785C245.615 48.4785 245.102 48.3988 244.601 48.2393C244.122 48.1025 243.701 47.8747 243.336 47.5557C242.971 47.2367 242.675 46.8379 242.447 46.3594C242.242 45.8581 242.14 45.2656 242.14 44.582C242.14 43.6706 242.276 42.8047 242.55 41.9844C242.709 41.5059 242.914 41.0046 243.165 40.4805C243.416 39.9564 243.689 39.4437 243.985 38.9424C244.282 38.4183 244.578 37.9284 244.874 37.4727C245.17 36.9941 245.444 36.584 245.694 36.2422C245.17 36.8118 244.635 37.3701 244.088 37.917C243.541 38.4639 242.983 39.0221 242.413 39.5918C241.638 40.321 240.864 41.0501 240.089 41.7793C239.314 42.5085 238.505 43.2035 237.662 43.8643C236.318 44.9352 235.121 45.7783 234.073 46.3936C233.048 47.0088 232.148 47.4759 231.373 47.7949C230.598 48.0911 229.949 48.2734 229.425 48.3418C228.901 48.4329 228.491 48.4785 228.194 48.4785C227.67 48.4785 227.169 48.3988 226.69 48.2393C226.212 48.1025 225.79 47.8747 225.426 47.5557C225.061 47.2367 224.765 46.8379 224.537 46.3594C224.332 45.8581 224.229 45.2656 224.229 44.582C224.229 43.5794 224.389 42.6452 224.708 41.7793C225.05 40.8906 225.471 40.0247 225.973 39.1816C226.77 37.8145 227.636 36.5726 228.57 35.4561C229.527 34.3167 230.484 33.2002 231.441 32.1064L245.011 16.1445C245.922 15.0508 246.754 14.014 247.506 13.0342C248.258 12.0316 248.85 10.9492 249.283 9.78711C249.557 9.14909 249.693 8.46549 249.693 7.73633C249.693 7.46289 249.648 7.16667 249.557 6.84766C249.488 6.50586 249.352 6.17546 249.146 5.85645C248.941 5.51465 248.657 5.19564 248.292 4.89941C247.927 4.5804 247.46 4.29557 246.891 4.04492C246.321 3.79427 245.729 3.62337 245.113 3.53223C244.521 3.44108 243.906 3.39551 243.268 3.39551C241.057 3.39551 238.801 3.79427 236.5 4.5918C234.221 5.36654 232.068 6.58561 230.04 8.24902C229.265 8.86426 228.548 9.51367 227.887 10.1973C227.249 10.8809 226.69 11.5986 226.212 12.3506C225.733 13.0798 225.357 13.8317 225.084 14.6064C224.833 15.3812 224.708 16.1559 224.708 16.9307C224.708 17.318 224.742 17.7168 224.811 18.127C224.902 18.5143 225.05 18.8789 225.255 19.2207C225.984 20.3828 227.18 20.9639 228.844 20.9639C229.687 20.9639 230.496 20.8385 231.271 20.5879C232.068 20.3372 232.82 20.0068 233.526 19.5967C234.575 18.9587 235.532 18.2181 236.397 17.375C237.286 16.5091 238.084 15.5635 238.79 14.5381C239.519 13.4443 240.169 12.2253 240.738 10.8809C241.331 9.53646 241.775 8.04395 242.071 6.40332L243.199 6.64258ZM291.837 27.6289L279.635 43.3857C279.384 43.7048 279.156 44.0465 278.951 44.4111C278.723 44.7529 278.53 45.0833 278.37 45.4023C278.233 45.6986 278.154 45.9264 278.131 46.0859C278.108 46.2227 278.097 46.3252 278.097 46.3936C278.097 46.4619 278.108 46.5531 278.131 46.667C278.154 46.7809 278.211 46.9062 278.302 47.043C278.37 47.1569 278.484 47.2594 278.644 47.3506C278.803 47.4189 279.02 47.4531 279.293 47.4531C279.635 47.4531 280.159 47.3506 280.865 47.1455C281.572 46.9404 282.54 46.4733 283.771 45.7441C284.317 45.4251 284.978 45.0036 285.753 44.4795C286.505 43.9326 287.371 43.2376 288.351 42.3945C289.353 41.5286 290.458 40.4919 291.666 39.2842C292.896 38.0765 294.229 36.641 295.665 34.9775C296.69 33.7699 297.67 32.5736 298.604 31.3887C299.562 30.181 300.496 28.9277 301.407 27.6289H305.133L290.641 46.667C292.6 45.8695 294.788 44.8099 297.203 43.4883C299.618 42.1667 302.159 40.4691 304.825 38.3955L305.611 39.4551C304.928 40.0247 304.073 40.6855 303.048 41.4375C302.022 42.1667 300.826 42.9414 299.459 43.7617C298.092 44.582 296.554 45.4137 294.845 46.2568C293.159 47.0999 291.29 47.9089 289.239 48.6836C288.077 50.3926 286.676 52.2383 285.035 54.2207C283.372 56.2031 281.572 58.0716 279.635 59.8262C278.86 60.5326 278.017 61.2389 277.105 61.9453C276.171 62.6745 275.214 63.3239 274.234 63.8936C273.255 64.486 272.263 64.9645 271.261 65.3291C270.258 65.7165 269.29 65.9102 268.355 65.9102C267.945 65.9102 267.558 65.8646 267.193 65.7734C266.806 65.7051 266.476 65.5684 266.202 65.3633C265.906 65.181 265.667 64.9417 265.484 64.6455C265.302 64.3493 265.211 63.9847 265.211 63.5518C265.211 63.1644 265.279 62.777 265.416 62.3896C265.553 62.0023 265.712 61.6377 265.895 61.2959C266.077 60.9541 266.282 60.6465 266.51 60.373C266.715 60.0996 266.897 59.8717 267.057 59.6895C267.604 59.0286 268.207 58.4134 268.868 57.8438C269.506 57.2741 270.178 56.7272 270.885 56.2031C271.979 55.3828 273.163 54.5967 274.439 53.8447C275.693 53.0928 276.969 52.3864 278.268 51.7256C279.566 51.0876 280.854 50.5065 282.13 49.9824C283.406 49.4583 284.625 49.0026 285.787 48.6152L291.734 40.9932C290.823 41.9046 289.832 42.8275 288.761 43.7617C287.69 44.6732 286.653 45.4593 285.65 46.1201C285.24 46.4163 284.75 46.7354 284.181 47.0771C283.611 47.3962 283.019 47.6924 282.403 47.9658C281.788 48.2393 281.173 48.4671 280.558 48.6494C279.942 48.8317 279.384 48.9229 278.883 48.9229C278.655 48.9229 278.382 48.8887 278.062 48.8203C277.743 48.752 277.447 48.6152 277.174 48.4102C276.878 48.2051 276.638 47.9202 276.456 47.5557C276.251 47.1683 276.148 46.667 276.148 46.0518C276.148 45.2314 276.285 44.4225 276.559 43.625C276.809 42.8047 277.128 42.0299 277.516 41.3008C277.88 40.5488 278.29 39.8652 278.746 39.25C279.179 38.6348 279.566 38.0993 279.908 37.6436L287.701 27.6289H291.837ZM284.762 50.3242C283.486 50.8027 282.13 51.3724 280.694 52.0332C279.259 52.694 277.846 53.4118 276.456 54.1865C275.066 54.984 273.744 55.8271 272.491 56.7158C271.238 57.6045 270.144 58.5273 269.21 59.4844C268.731 59.9629 268.355 60.3958 268.082 60.7832C267.786 61.1706 267.569 61.5124 267.433 61.8086C267.296 62.1048 267.216 62.3441 267.193 62.5264C267.148 62.7314 267.125 62.8796 267.125 62.9707C267.125 63.1074 267.148 63.2555 267.193 63.415C267.216 63.5745 267.285 63.734 267.398 63.8936C267.49 64.0531 267.638 64.1784 267.843 64.2695C268.048 64.3835 268.321 64.4404 268.663 64.4404C269.415 64.4404 270.213 64.2354 271.056 63.8252C271.876 63.415 272.674 62.9251 273.448 62.3555C274.223 61.8086 274.918 61.2503 275.533 60.6807C276.148 60.111 276.627 59.6667 276.969 59.3477C277.584 58.7324 278.233 58.0602 278.917 57.3311C279.578 56.6019 280.25 55.8385 280.934 55.041C281.594 54.2663 282.255 53.4801 282.916 52.6826C283.554 51.8851 284.169 51.099 284.762 50.3242ZM326.905 38.2588C326.244 38.874 325.493 39.5348 324.649 40.2412C323.829 40.9248 322.963 41.6198 322.052 42.3262C321.163 43.0098 320.229 43.682 319.249 44.3428C318.292 45.0036 317.346 45.6188 316.412 46.1885C315.455 46.7354 314.589 47.1911 313.814 47.5557C313.017 47.8975 312.299 48.1709 311.661 48.376C311.023 48.5811 310.465 48.7178 309.986 48.7861C309.485 48.8773 309.041 48.9229 308.653 48.9229C308.425 48.9229 308.095 48.8887 307.662 48.8203C307.206 48.7747 306.762 48.6152 306.329 48.3418C305.873 48.0911 305.486 47.7152 305.167 47.2139C304.825 46.7126 304.654 46.0176 304.654 45.1289C304.654 44.9694 304.666 44.7074 304.688 44.3428C304.711 43.9782 304.791 43.5225 304.928 42.9756C305.064 42.4287 305.27 41.8135 305.543 41.1299C305.816 40.4235 306.192 39.6374 306.671 38.7715C306.99 38.2474 307.332 37.7347 307.696 37.2334C308.038 36.7093 308.403 36.2194 308.79 35.7637C309.246 35.2396 309.724 34.7269 310.226 34.2256C310.704 33.7015 311.205 33.2116 311.729 32.7559C312.914 31.6849 314.213 30.7165 315.626 29.8506C317.039 28.9847 318.395 28.2897 319.693 27.7656C320.468 27.4466 321.3 27.1846 322.188 26.9795C323.077 26.7516 323.852 26.6377 324.513 26.6377C325.72 26.6377 326.643 26.9339 327.281 27.5264C327.919 28.096 328.238 28.7796 328.238 29.5771C328.238 29.8962 328.193 30.2152 328.102 30.5342C328.01 30.8304 327.896 31.1266 327.76 31.4229C327.372 32.1292 326.871 32.6761 326.256 33.0635C325.663 33.4508 325.037 33.6445 324.376 33.6445C324.239 33.6445 324.103 33.6445 323.966 33.6445C323.829 33.6217 323.692 33.5762 323.556 33.5078C323.191 33.3711 322.952 33.1774 322.838 32.9268C322.747 32.6761 322.701 32.4255 322.701 32.1748C322.701 31.833 322.77 31.5482 322.906 31.3203C323.066 31.0924 323.248 30.9215 323.453 30.8076C323.658 30.6709 323.875 30.5798 324.103 30.5342C324.353 30.4658 324.57 30.4089 324.752 30.3633C325.208 30.2949 325.618 30.2038 325.982 30.0898C326.37 29.9531 326.563 29.6683 326.563 29.2354C326.563 28.9847 326.461 28.734 326.256 28.4834C326.051 28.2327 325.686 28.1074 325.162 28.1074C324.752 28.1074 324.308 28.1872 323.829 28.3467C323.351 28.4834 322.895 28.6543 322.462 28.8594C322.052 29.0417 321.664 29.2354 321.3 29.4404C320.958 29.6227 320.707 29.7708 320.548 29.8848C319.614 30.4316 318.725 31.0469 317.882 31.7305C317.039 32.4141 316.218 33.1204 315.421 33.8496C314.304 34.8978 313.256 35.9801 312.276 37.0967C311.502 37.9626 310.75 38.8626 310.021 39.7969C309.269 40.7311 308.642 41.597 308.141 42.3945C307.822 42.8958 307.514 43.4541 307.218 44.0693C306.899 44.6846 306.739 45.2201 306.739 45.6758C306.739 45.8581 306.762 46.0518 306.808 46.2568C306.83 46.4391 306.899 46.5986 307.013 46.7354C307.263 47.1227 307.605 47.3506 308.038 47.4189C308.471 47.4873 308.79 47.5215 308.995 47.5215C309.405 47.5215 309.827 47.4759 310.26 47.3848C310.67 47.2936 311.091 47.1683 311.524 47.0088C312.117 46.8037 312.698 46.5758 313.268 46.3252C313.814 46.0745 314.35 45.7897 314.874 45.4707C315.785 44.9694 316.731 44.3883 317.711 43.7275C318.714 43.0667 319.705 42.3831 320.685 41.6768C321.664 40.9476 322.61 40.207 323.521 39.4551C324.456 38.7031 325.31 37.9854 326.085 37.3018L326.905 38.2588ZM350.113 33.7129C350.455 33.3939 350.854 33.0521 351.31 32.6875C351.788 32.3001 352.278 31.9128 352.779 31.5254C353.281 31.1152 353.793 30.7279 354.317 30.3633C354.864 29.9759 355.377 29.6227 355.855 29.3037C356.721 28.7568 357.507 28.3125 358.214 27.9707C358.943 27.6289 359.592 27.3783 360.162 27.2188C360.732 27.0365 361.233 26.9225 361.666 26.877C362.099 26.8086 362.452 26.7744 362.726 26.7744C363.751 26.7744 364.469 27.0137 364.879 27.4922C365.312 27.9479 365.528 28.529 365.528 29.2354C365.528 29.8506 365.392 30.4772 365.118 31.1152C364.868 31.7533 364.56 32.3685 364.195 32.9609C363.854 33.5306 363.489 34.0547 363.102 34.5332C362.714 35.0117 362.395 35.3991 362.145 35.6953L355.855 43.1807C355.582 43.5225 355.286 43.887 354.967 44.2744C354.648 44.6618 354.363 45.0605 354.112 45.4707C354.044 45.653 353.976 45.8011 353.907 45.915C353.862 46.029 353.839 46.1429 353.839 46.2568C353.839 46.3708 353.839 46.4733 353.839 46.5645C353.862 46.6556 353.907 46.7354 353.976 46.8037C354.135 47.0316 354.431 47.1455 354.864 47.1455C355.183 47.1455 355.502 47.1113 355.821 47.043C356.14 46.9518 356.459 46.8493 356.778 46.7354C357.507 46.4163 358.214 46.0745 358.897 45.71C359.581 45.3226 360.253 44.901 360.914 44.4453C362.008 43.7161 363.147 42.8844 364.332 41.9502C365.517 40.9932 366.896 39.8083 368.468 38.3955L369.288 39.3867C368.445 40.2298 367.636 40.9932 366.861 41.6768C366.087 42.3376 365.38 42.9186 364.742 43.4199C364.104 43.9212 363.546 44.3428 363.067 44.6846C362.589 45.0036 362.236 45.2428 362.008 45.4023C360.777 46.2454 359.695 46.8949 358.761 47.3506C357.849 47.7835 357.075 48.1025 356.437 48.3076C355.821 48.5127 355.331 48.6266 354.967 48.6494C354.625 48.6722 354.409 48.6836 354.317 48.6836C353.884 48.6836 353.44 48.5697 352.984 48.3418C352.711 48.1595 352.438 47.8861 352.164 47.5215C351.913 47.1341 351.788 46.5417 351.788 45.7441C351.788 45.1973 351.879 44.6276 352.062 44.0352C352.244 43.4199 352.494 42.8161 352.813 42.2236C353.132 41.6312 353.486 41.0501 353.873 40.4805C354.283 39.888 354.716 39.3411 355.172 38.8398L361.529 31.4229C361.712 31.195 361.882 30.9899 362.042 30.8076C362.201 30.6253 362.361 30.4316 362.521 30.2266C362.634 30.0443 362.748 29.8392 362.862 29.6113C362.999 29.3835 363.067 29.167 363.067 28.9619C363.067 28.8252 363.022 28.6657 362.931 28.4834C362.817 28.3011 362.68 28.1986 362.521 28.1758C362.361 28.1302 362.19 28.1074 362.008 28.1074C361.666 28.1074 361.324 28.153 360.982 28.2441C360.641 28.3353 360.31 28.4378 359.991 28.5518C359.262 28.8252 358.328 29.2809 357.188 29.9189C356.049 30.557 354.671 31.5254 353.053 32.8242C351.161 34.3737 349.396 36.0143 347.755 37.7461C346.137 39.4779 344.588 41.2666 343.106 43.1123C342.468 43.9098 341.842 44.7188 341.227 45.5391C340.611 46.3366 340.007 47.1569 339.415 48H335.416L348.302 31.1836C348.644 30.7279 348.951 30.3291 349.225 29.9873C349.498 29.6227 349.635 29.2809 349.635 28.9619C349.635 28.7568 349.589 28.5973 349.498 28.4834C349.43 28.3467 349.327 28.2555 349.19 28.21C349.076 28.1644 348.963 28.1416 348.849 28.1416C348.735 28.1188 348.644 28.1074 348.575 28.1074C348.233 28.1074 347.687 28.21 346.935 28.415C346.205 28.6201 345.191 29.0872 343.893 29.8164C343.163 30.2266 342.457 30.6709 341.773 31.1494C341.09 31.6279 340.418 32.1292 339.757 32.6533C338.937 33.3141 338.093 34.0547 337.228 34.875C336.362 35.6953 335.507 36.5498 334.664 37.4385C333.798 38.3271 332.955 39.25 332.135 40.207C331.292 41.1413 330.494 42.0641 329.742 42.9756C329.081 43.7731 328.443 44.5934 327.828 45.4365C327.19 46.2796 326.575 47.1341 325.982 48H321.983L337.296 27.6289H340.885L336.134 34.0547C336.59 33.6673 337.079 33.2686 337.604 32.8584C338.128 32.4255 338.652 32.0039 339.176 31.5938C339.7 31.1836 340.213 30.7962 340.714 30.4316C341.238 30.0443 341.716 29.7139 342.149 29.4404C343.061 28.8252 343.893 28.3467 344.645 28.0049C345.396 27.6403 346.057 27.3669 346.627 27.1846C347.219 27.0023 347.721 26.8883 348.131 26.8428C348.541 26.7972 348.871 26.7744 349.122 26.7744C349.692 26.7744 350.239 26.877 350.763 27.082C351.31 27.3327 351.663 27.6631 351.822 28.0732C351.982 28.4834 352.062 28.848 352.062 29.167C352.062 29.3721 352.027 29.5885 351.959 29.8164C351.913 30.0215 351.856 30.2266 351.788 30.4316C351.697 30.6595 351.583 30.9102 351.446 31.1836C351.332 31.457 351.207 31.7305 351.07 32.0039C350.934 32.2546 350.797 32.4938 350.66 32.7217C350.546 32.9495 350.455 33.1204 350.387 33.2344L350.113 33.7129ZM388.395 37.5752C388.622 37.7575 388.919 37.917 389.283 38.0537C389.671 38.1904 390.001 38.2816 390.274 38.3271C390.548 38.3727 390.844 38.3955 391.163 38.3955C391.345 38.3955 391.516 38.3955 391.676 38.3955C391.858 38.3955 392.04 38.3727 392.223 38.3271C392.587 38.2588 392.963 38.1562 393.351 38.0195C393.761 37.86 394.114 37.7119 394.41 37.5752L394.889 38.5664C394.114 39.0449 393.373 39.3525 392.667 39.4893C391.961 39.6032 391.391 39.6602 390.958 39.6602C390.753 39.6602 390.536 39.6488 390.309 39.626C390.081 39.6032 389.853 39.569 389.625 39.5234C389.283 39.4551 388.941 39.3525 388.6 39.2158C388.258 39.0791 387.927 38.8854 387.608 38.6348C387.016 39.4095 386.401 40.1501 385.763 40.8564C385.125 41.54 384.475 42.2122 383.814 42.873C383.154 43.5339 382.459 44.1833 381.729 44.8213C381 45.4365 380.226 46.0062 379.405 46.5303C378.927 46.8493 378.403 47.1569 377.833 47.4531C377.241 47.7493 376.648 48.0114 376.056 48.2393C375.463 48.4671 374.871 48.6494 374.278 48.7861C373.686 48.9229 373.116 48.9912 372.569 48.9912C371.293 48.9912 370.279 48.6266 369.527 47.8975C368.753 47.1683 368.365 46.1543 368.365 44.8555C368.365 43.8529 368.604 42.7933 369.083 41.6768C369.539 40.5374 370.143 39.4095 370.895 38.293C371.646 37.1764 372.501 36.1169 373.458 35.1143C374.392 34.0889 375.326 33.1774 376.261 32.3799C377.127 31.6735 378.095 30.9785 379.166 30.2949C380.214 29.5885 381.285 28.9733 382.379 28.4492C383.473 27.9023 384.555 27.4694 385.626 27.1504C386.72 26.8086 387.711 26.6377 388.6 26.6377C389.374 26.6377 389.978 26.763 390.411 27.0137C390.844 27.2643 391.163 27.5605 391.368 27.9023C391.573 28.2441 391.699 28.5859 391.744 28.9277C391.79 29.2695 391.812 29.5316 391.812 29.7139C391.812 30.2835 391.71 30.9102 391.505 31.5938C391.3 32.2773 391.026 32.9837 390.685 33.7129C390.366 34.4193 390.001 35.1143 389.591 35.7979C389.203 36.4587 388.805 37.0511 388.395 37.5752ZM390.138 30.9102C390.206 30.7279 390.24 30.5456 390.24 30.3633C390.263 30.181 390.274 30.0215 390.274 29.8848C390.274 29.4974 390.206 29.2012 390.069 28.9961C389.955 28.7682 389.807 28.5973 389.625 28.4834C389.443 28.3695 389.249 28.3011 389.044 28.2783C388.862 28.2555 388.714 28.2441 388.6 28.2441C388.349 28.2441 388.098 28.2783 387.848 28.3467C387.62 28.415 387.381 28.4834 387.13 28.5518C386.629 28.734 386.15 28.9505 385.694 29.2012C385.239 29.4518 384.783 29.7253 384.327 30.0215C383.165 30.7962 382.083 31.6165 381.08 32.4824C380.077 33.3255 379.029 34.2712 377.936 35.3193C377.138 36.1169 376.295 37.0169 375.406 38.0195C374.495 39.0221 373.618 40.1045 372.774 41.2666C372.296 41.9274 371.92 42.4971 371.646 42.9756C371.373 43.4541 371.168 43.8643 371.031 44.2061C370.895 44.5479 370.815 44.8327 370.792 45.0605C370.746 45.2656 370.724 45.4251 370.724 45.5391C370.724 46.0404 370.917 46.4961 371.305 46.9062C371.692 47.3164 372.319 47.5215 373.185 47.5215C373.709 47.5215 374.256 47.4417 374.825 47.2822C375.372 47.1227 375.919 46.9176 376.466 46.667C376.99 46.4163 377.503 46.1315 378.004 45.8125C378.505 45.4935 378.972 45.1745 379.405 44.8555C380.134 44.2858 380.841 43.6934 381.524 43.0781C382.208 42.4401 382.88 41.7907 383.541 41.1299C384.111 40.5374 384.669 39.945 385.216 39.3525C385.785 38.7601 386.332 38.1449 386.856 37.5068C386.743 37.2106 386.651 36.9258 386.583 36.6523C386.515 36.3789 386.48 36.0827 386.48 35.7637C386.48 35.194 386.594 34.6243 386.822 34.0547C387.05 33.485 387.358 32.9495 387.745 32.4482C388.178 31.9014 388.588 31.5254 388.976 31.3203C389.363 31.1152 389.75 30.9785 390.138 30.9102ZM418.37 39.4551C417.732 39.6829 417.094 39.7969 416.456 39.7969C416.297 39.7969 416.069 39.7855 415.772 39.7627C415.499 39.7399 415.18 39.6715 414.815 39.5576C414.474 39.4437 414.098 39.2842 413.688 39.0791C413.3 38.8512 412.924 38.5322 412.56 38.1221C411.534 39.3981 410.429 40.6286 409.244 41.8135C408.059 42.9756 406.874 44.0352 405.689 44.9922C405.165 45.4023 404.573 45.8353 403.912 46.291C403.251 46.7467 402.556 47.1569 401.827 47.5215C401.075 47.8861 400.3 48.1823 399.503 48.4102C398.705 48.6608 397.919 48.7861 397.145 48.7861C396.985 48.7861 396.7 48.7633 396.29 48.7178C395.88 48.6722 395.47 48.5355 395.06 48.3076C394.627 48.0798 394.251 47.738 393.932 47.2822C393.59 46.8265 393.419 46.1999 393.419 45.4023C393.419 44.901 393.499 44.377 393.658 43.8301C393.795 43.2604 393.977 42.7135 394.205 42.1895C394.41 41.6426 394.649 41.1299 394.923 40.6514C395.174 40.1501 395.401 39.7285 395.606 39.3867C396.131 38.4753 396.791 37.484 397.589 36.4131C398.364 35.3193 399.207 34.1914 400.118 33.0293C401.007 31.8672 401.941 30.7051 402.921 29.543C403.901 28.3581 404.869 27.2301 405.826 26.1592C406.76 25.0654 407.649 24.0514 408.492 23.1172C409.335 22.1602 410.076 21.3285 410.714 20.6221C411.489 19.779 412.457 18.7422 413.619 17.5117C414.804 16.2812 416.08 15.0052 417.447 13.6836C418.814 12.3392 420.227 11.029 421.686 9.75293C423.167 8.4541 424.579 7.33757 425.924 6.40332C426.402 6.08431 426.926 5.75391 427.496 5.41211C428.089 5.04753 428.681 4.71712 429.273 4.4209C429.866 4.12467 430.436 3.88542 430.982 3.70312C431.552 3.49805 432.076 3.39551 432.555 3.39551C433.193 3.39551 433.728 3.55501 434.161 3.87402C434.594 4.17025 434.811 4.67155 434.811 5.37793C434.811 5.90202 434.674 6.46029 434.4 7.05273C434.127 7.64518 433.808 8.22624 433.443 8.7959C433.079 9.34277 432.714 9.84408 432.35 10.2998C431.985 10.7327 431.712 11.0518 431.529 11.2568C430.549 12.3278 429.422 13.4443 428.146 14.6064C426.892 15.7458 425.548 16.8851 424.112 18.0244C422.7 19.141 421.23 20.2461 419.703 21.3398C418.176 22.4336 416.673 23.4818 415.191 24.4844C413.733 25.4642 412.32 26.3757 410.953 27.2188C409.609 28.0618 408.39 28.8024 407.296 29.4404C405.883 31.0811 404.653 32.5622 403.604 33.8838C402.556 35.1826 401.645 36.3675 400.87 37.4385C400.073 38.5094 399.389 39.4779 398.819 40.3438C398.227 41.2096 397.691 42.0072 397.213 42.7363C396.712 43.5111 396.347 44.1491 396.119 44.6504C395.868 45.1517 395.743 45.596 395.743 45.9834C395.743 46.1657 395.789 46.348 395.88 46.5303C395.948 46.667 396.119 46.8379 396.393 47.043C396.643 47.2253 397.008 47.3164 397.486 47.3164C398.124 47.3164 398.819 47.1911 399.571 46.9404C400.3 46.667 401.03 46.3366 401.759 45.9492C402.465 45.5391 403.137 45.1175 403.775 44.6846C404.413 44.2288 404.96 43.8187 405.416 43.4541C406.51 42.5426 407.638 41.4603 408.8 40.207C409.962 38.931 411.021 37.6549 411.979 36.3789C412.047 34.8066 412.343 33.3711 412.867 32.0723C413.414 30.7734 414.052 29.6911 414.781 28.8252C415.055 28.5062 415.34 28.21 415.636 27.9365C415.932 27.6631 416.274 27.4238 416.661 27.2188C417.071 26.9909 417.47 26.877 417.857 26.877C418.062 26.877 418.222 26.9225 418.336 27.0137C418.473 27.082 418.564 27.1732 418.609 27.2871C418.655 27.3783 418.678 27.4808 418.678 27.5947C418.701 27.7087 418.712 27.8112 418.712 27.9023C418.712 28.3353 418.598 28.8138 418.37 29.3379C418.165 29.8392 417.835 30.4886 417.379 31.2861C417.06 31.8102 416.741 32.3343 416.422 32.8584C416.103 33.3597 415.772 33.861 415.431 34.3623C415.112 34.818 414.793 35.2624 414.474 35.6953C414.155 36.1055 413.836 36.5156 413.517 36.9258C413.744 37.2448 414.007 37.5296 414.303 37.7803C414.599 38.0309 414.918 38.2132 415.26 38.3271C415.419 38.3727 415.579 38.4069 415.738 38.4297C415.898 38.4525 416.046 38.4639 416.183 38.4639C416.57 38.4639 416.912 38.4411 417.208 38.3955C417.504 38.3271 417.743 38.2588 417.926 38.1904L418.37 39.4551ZM409.039 26.9453C409.996 26.3301 411.078 25.6237 412.286 24.8262C413.494 24.0286 414.747 23.1742 416.046 22.2627C417.368 21.3285 418.701 20.36 420.045 19.3574C421.389 18.3548 422.677 17.3522 423.907 16.3496C425.16 15.347 426.323 14.3558 427.394 13.376C428.487 12.3962 429.422 11.4733 430.196 10.6074C431.267 9.39974 431.974 8.46549 432.315 7.80469C432.657 7.12109 432.828 6.58561 432.828 6.19824C432.828 5.87923 432.783 5.63997 432.691 5.48047C432.623 5.29818 432.532 5.17285 432.418 5.10449C432.304 5.01335 432.19 4.96777 432.076 4.96777C431.962 4.94499 431.871 4.93359 431.803 4.93359C431.415 4.93359 430.96 5.05892 430.436 5.30957C429.934 5.56022 429.433 5.84505 428.932 6.16406C428.43 6.48307 427.975 6.80208 427.564 7.12109C427.177 7.41732 426.904 7.6224 426.744 7.73633C425.833 8.46549 424.853 9.33138 423.805 10.334C422.779 11.3366 421.72 12.4076 420.626 13.5469C419.532 14.6862 418.438 15.8711 417.345 17.1016C416.251 18.3092 415.203 19.5055 414.2 20.6904C413.198 21.8753 412.252 23.0033 411.363 24.0742C410.475 25.1452 409.7 26.1022 409.039 26.9453ZM438.844 37.5752C439.072 37.7575 439.368 37.917 439.732 38.0537C440.12 38.1904 440.45 38.2816 440.724 38.3271C440.997 38.3727 441.293 38.3955 441.612 38.3955C441.795 38.3955 441.965 38.3955 442.125 38.3955C442.307 38.3955 442.49 38.3727 442.672 38.3271C443.036 38.2588 443.412 38.1562 443.8 38.0195C444.21 37.86 444.563 37.7119 444.859 37.5752L445.338 38.5664C444.563 39.0449 443.823 39.3525 443.116 39.4893C442.41 39.6032 441.84 39.6602 441.407 39.6602C441.202 39.6602 440.986 39.6488 440.758 39.626C440.53 39.6032 440.302 39.569 440.074 39.5234C439.732 39.4551 439.391 39.3525 439.049 39.2158C438.707 39.0791 438.377 38.8854 438.058 38.6348C437.465 39.4095 436.85 40.1501 436.212 40.8564C435.574 41.54 434.924 42.2122 434.264 42.873C433.603 43.5339 432.908 44.1833 432.179 44.8213C431.45 45.4365 430.675 46.0062 429.854 46.5303C429.376 46.8493 428.852 47.1569 428.282 47.4531C427.69 47.7493 427.097 48.0114 426.505 48.2393C425.912 48.4671 425.32 48.6494 424.728 48.7861C424.135 48.9229 423.565 48.9912 423.019 48.9912C421.743 48.9912 420.729 48.6266 419.977 47.8975C419.202 47.1683 418.814 46.1543 418.814 44.8555C418.814 43.8529 419.054 42.7933 419.532 41.6768C419.988 40.5374 420.592 39.4095 421.344 38.293C422.096 37.1764 422.95 36.1169 423.907 35.1143C424.841 34.0889 425.776 33.1774 426.71 32.3799C427.576 31.6735 428.544 30.9785 429.615 30.2949C430.663 29.5885 431.734 28.9733 432.828 28.4492C433.922 27.9023 435.004 27.4694 436.075 27.1504C437.169 26.8086 438.16 26.6377 439.049 26.6377C439.824 26.6377 440.427 26.763 440.86 27.0137C441.293 27.2643 441.612 27.5605 441.817 27.9023C442.022 28.2441 442.148 28.5859 442.193 28.9277C442.239 29.2695 442.262 29.5316 442.262 29.7139C442.262 30.2835 442.159 30.9102 441.954 31.5938C441.749 32.2773 441.476 32.9837 441.134 33.7129C440.815 34.4193 440.45 35.1143 440.04 35.7979C439.653 36.4587 439.254 37.0511 438.844 37.5752ZM440.587 30.9102C440.655 30.7279 440.689 30.5456 440.689 30.3633C440.712 30.181 440.724 30.0215 440.724 29.8848C440.724 29.4974 440.655 29.2012 440.519 28.9961C440.405 28.7682 440.257 28.5973 440.074 28.4834C439.892 28.3695 439.698 28.3011 439.493 28.2783C439.311 28.2555 439.163 28.2441 439.049 28.2441C438.798 28.2441 438.548 28.2783 438.297 28.3467C438.069 28.415 437.83 28.4834 437.579 28.5518C437.078 28.734 436.599 28.9505 436.144 29.2012C435.688 29.4518 435.232 29.7253 434.776 30.0215C433.614 30.7962 432.532 31.6165 431.529 32.4824C430.527 33.3255 429.479 34.2712 428.385 35.3193C427.587 36.1169 426.744 37.0169 425.855 38.0195C424.944 39.0221 424.067 40.1045 423.224 41.2666C422.745 41.9274 422.369 42.4971 422.096 42.9756C421.822 43.4541 421.617 43.8643 421.48 44.2061C421.344 44.5479 421.264 44.8327 421.241 45.0605C421.196 45.2656 421.173 45.4251 421.173 45.5391C421.173 46.0404 421.367 46.4961 421.754 46.9062C422.141 47.3164 422.768 47.5215 423.634 47.5215C424.158 47.5215 424.705 47.4417 425.274 47.2822C425.821 47.1227 426.368 46.9176 426.915 46.667C427.439 46.4163 427.952 46.1315 428.453 45.8125C428.954 45.4935 429.422 45.1745 429.854 44.8555C430.584 44.2858 431.29 43.6934 431.974 43.0781C432.657 42.4401 433.329 41.7907 433.99 41.1299C434.56 40.5374 435.118 39.945 435.665 39.3525C436.235 38.7601 436.782 38.1449 437.306 37.5068C437.192 37.2106 437.101 36.9258 437.032 36.6523C436.964 36.3789 436.93 36.0827 436.93 35.7637C436.93 35.194 437.044 34.6243 437.271 34.0547C437.499 33.485 437.807 32.9495 438.194 32.4482C438.627 31.9014 439.037 31.5254 439.425 31.3203C439.812 31.1152 440.2 30.9785 440.587 30.9102ZM460.069 27.6289L447.867 43.3857C447.685 43.5908 447.48 43.8984 447.252 44.3086C447.024 44.696 446.83 44.9922 446.671 45.1973C446.557 45.3796 446.477 45.5618 446.432 45.7441C446.363 45.9264 446.329 46.1429 446.329 46.3936C446.329 46.7809 446.454 47.0544 446.705 47.2139C446.956 47.3734 447.252 47.4531 447.594 47.4531C447.981 47.4531 448.425 47.3734 448.927 47.2139C449.405 47.0544 449.907 46.8607 450.431 46.6328C450.932 46.3822 451.445 46.1087 451.969 45.8125C452.47 45.4935 452.926 45.1973 453.336 44.9238C455.022 43.7617 456.765 42.3262 458.565 40.6172C460.388 38.8854 462.143 37.0511 463.829 35.1143C464.9 33.9294 465.903 32.7103 466.837 31.457C467.794 30.2038 468.728 28.9277 469.64 27.6289H473.707L461.095 44.0693C460.753 44.5251 460.457 44.9466 460.206 45.334C459.955 45.6986 459.83 46.0745 459.83 46.4619C459.83 46.5986 459.887 46.8037 460.001 47.0771C460.115 47.3278 460.434 47.4531 460.958 47.4531C461.254 47.4531 461.653 47.3734 462.154 47.2139C462.656 47.0316 463.373 46.6442 464.308 46.0518C464.604 45.8695 464.877 45.6872 465.128 45.5049C465.379 45.3226 465.652 45.1289 465.948 44.9238C466.176 44.7415 466.518 44.4795 466.974 44.1377C467.429 43.7959 467.965 43.3743 468.58 42.873C469.195 42.3717 469.879 41.8021 470.631 41.1641C471.383 40.5033 472.169 39.7741 472.989 38.9766L473.98 39.8652C473.297 40.5944 472.647 41.2438 472.032 41.8135C471.417 42.3831 470.802 42.9186 470.187 43.4199C469.594 43.9212 469.002 44.3997 468.409 44.8555C467.84 45.2884 467.247 45.7327 466.632 46.1885C466.472 46.3024 466.176 46.5189 465.743 46.8379C465.333 47.1341 464.843 47.4417 464.273 47.7607C463.727 48.057 463.134 48.319 462.496 48.5469C461.881 48.7975 461.3 48.9229 460.753 48.9229C460.138 48.9229 459.648 48.7975 459.283 48.5469C458.941 48.2962 458.679 48 458.497 47.6582C458.338 47.3164 458.235 46.9746 458.189 46.6328C458.167 46.291 458.155 46.029 458.155 45.8467C458.155 45.6188 458.155 45.4137 458.155 45.2314C458.155 45.0492 458.178 44.8555 458.224 44.6504C458.269 44.2174 458.338 43.8073 458.429 43.4199C458.52 43.0098 458.622 42.6224 458.736 42.2578C457.87 43.0326 456.959 43.8073 456.002 44.582C455.045 45.334 454.088 46.0062 453.131 46.5986C452.903 46.7354 452.561 46.9404 452.105 47.2139C451.65 47.4645 451.148 47.7152 450.602 47.9658C450.032 48.2165 449.451 48.4329 448.858 48.6152C448.266 48.8203 447.708 48.9229 447.184 48.9229C446.409 48.9229 445.748 48.695 445.201 48.2393C444.654 47.7835 444.381 47.0316 444.381 45.9834C444.381 45.5505 444.438 45.0605 444.552 44.5137C444.666 43.944 444.859 43.3288 445.133 42.668C445.406 41.9844 445.794 41.2324 446.295 40.4121C446.773 39.5918 447.389 38.6917 448.141 37.7119L455.934 27.6289H460.069ZM480.919 15.9395C479.962 17.0332 478.914 18.0814 477.774 19.084C476.658 20.0866 475.484 20.9753 474.254 21.75C473.069 22.4792 471.85 23.0716 470.597 23.5273C469.343 23.9831 467.999 24.2109 466.563 24.2109C466.336 24.2109 466.039 24.1995 465.675 24.1768C465.333 24.154 464.957 24.1084 464.547 24.04C464.137 23.9489 463.715 23.8236 463.282 23.6641C462.872 23.5046 462.473 23.2881 462.086 23.0146C461.38 22.5133 460.867 21.9209 460.548 21.2373C460.229 20.5537 460.069 19.8587 460.069 19.1523C460.069 18.5827 460.172 18.0244 460.377 17.4775C460.605 16.9307 460.912 16.4635 461.3 16.0762C461.55 15.8255 461.881 15.5749 462.291 15.3242C462.724 15.0736 463.259 14.9482 463.897 14.9482C464.672 14.9482 465.23 15.1647 465.572 15.5977C465.914 16.0078 466.085 16.4977 466.085 17.0674C466.085 17.5003 466.005 17.8421 465.846 18.0928C465.686 18.3434 465.493 18.5371 465.265 18.6738C465.037 18.7878 464.809 18.8675 464.581 18.9131C464.376 18.9359 464.216 18.9473 464.103 18.9473C463.92 18.9701 463.715 18.9928 463.487 19.0156C463.282 19.0384 463.089 19.0954 462.906 19.1865C462.724 19.2549 462.576 19.3688 462.462 19.5283C462.348 19.6878 462.291 19.9157 462.291 20.2119C462.291 20.4626 462.371 20.736 462.53 21.0322C462.69 21.3285 462.952 21.6019 463.316 21.8525C463.681 22.1032 464.148 22.3197 464.718 22.502C465.287 22.6615 465.971 22.7412 466.769 22.7412C467.976 22.7412 469.081 22.5703 470.084 22.2285C471.087 21.8639 472.158 21.3285 473.297 20.6221C474.413 19.9157 475.564 19.0726 476.749 18.0928C477.934 17.0902 479.016 16.042 479.996 14.9482L480.919 15.9395Z" fill="black"/>
</svg>
